<svg xmlns="http://www.w3.org/2000/svg" width="64" height="64" viewBox="0 0 64 64">
  <defs>
    <linearGradient id="g" x1="0" y1="0" x2="1" y2="1">
      <stop offset="0" stop-color="#2d3748"/>
      <stop offset="1" stop-color="#4a5568"/>
    </linearGradient>
  </defs>
  <rect width="64" height="64" rx="16" fill="url(#g)"/>
  <path d="M32 20a12 12 0 1 0 0 24 12 12 0 0 0 0-24zm0 7a5 5 0 1 1 0 10 5 5 0 0 1 0-10z" fill="#fff" opacity="0.92"/>
  <path d="M32 12l3 6 7 1-5 5 1 7-6-3-6 3 1-7-5-5 7-1 3-6z" fill="#fff" opacity="0.22"/>
</svg>
