<svg width="960" height="540" viewBox="0 0 960 540" xmlns="http://www.w3.org/2000/svg" role="img" aria-labelledby="title desc">
  <title id="title">Interactive tour highlight</title>
  <desc id="desc">Mocked screenshot that оцйв Driver.js overlay тм оск дчбцйн</desc>
  <defs>
    <linearGradient id="bg" x1="0" y1="0" x2="1" y2="1">
      <stop offset="0%" stop-color="#14192a" />
      <stop offset="100%" stop-color="#1f2b4a" />
    </linearGradient>
    <filter id="shadow" x="-20%" y="-20%" width="140%" height="140%">
      <feDropShadow dx="0" dy="8" stdDeviation="12" flood-color="#000" flood-opacity="0.4" />
    </filter>
  </defs>
  <rect width="960" height="540" fill="url(#bg)" rx="24" />
  <rect x="40" y="40" width="880" height="460" rx="18" fill="#1b2542" stroke="#2d3a66" stroke-dasharray="6 8" opacity="0.75" />
  <rect x="120" y="170" width="240" height="160" rx="14" fill="#2b395f" stroke="#93b4ff" stroke-width="2.5" />
  <rect x="400" y="115" width="420" height="60" rx="10" fill="#232f59" opacity="0.8" />
  <rect x="400" y="190" width="420" height="60" rx="10" fill="#232f59" opacity="0.65" />
  <circle cx="170" cy="215" r="20" fill="#ffca28" opacity="0.9" />
  <rect x="200" y="195" width="140" height="18" rx="9" fill="#3d4d7a" />
  <rect x="200" y="220" width="110" height="12" rx="6" fill="#3d4d7a" opacity="0.7" />
  <rect x="540" y="300" width="320" height="150" rx="16" fill="#111827" filter="url(#shadow)" />
  <path d="M520 320 L540 320 L540 360" fill="none" stroke="#111827" stroke-width="28" stroke-linecap="round" />
  <path d="M520 320 L540 320 L540 360" fill="none" stroke="#4c82ff" stroke-width="6" stroke-linecap="round" />
  <text x="560" y="335" fill="#a0b9ff" font-family="'Assistant', 'Heebo', sans-serif" font-size="22" font-weight="600">лап йецшйн чебх згщ</text>
  <text x="560" y="365" fill="#e2e8ff" font-family="'Assistant', 'Heebo', sans-serif" font-size="16">Driver.js огвйщ аъ лфъеш ддтмад боск дчбцйн.</text>
  <text x="560" y="395" fill="#8fa2d6" font-family="'Assistant', 'Heebo', sans-serif" font-size="16">дощъощ тебш бйп дщмбйн баоцтеъ лфъешй "дба/дчегн".</text>
  <rect x="560" y="410" width="110" height="34" rx="17" fill="#4c82ff" />
  <text x="585" y="433" fill="#fff" font-family="'Assistant', 'Heebo', sans-serif" font-size="18">дба :</text>
  <rect x="680" y="410" width="110" height="34" rx="17" fill="transparent" stroke="#4c82ff" stroke-width="2" />
  <text x="705" y="433" fill="#4c82ff" font-family="'Assistant', 'Heebo', sans-serif" font-size="18">гмв</text>
  <text x="60" y="510" fill="#5f6f9d" font-family="'Assistant', 'Heebo', sans-serif" font-size="18">Mock UI  дръерйн бфетм ритрйн оъек webapp/templates/files.html</text>
</svg>
