<svg width="960" height="540" viewBox="0 0 960 540" xmlns="http://www.w3.org/2000/svg" role="img" aria-labelledby="title desc">
  <title id="title">Theme wizard preview</title>
  <desc id="desc">оозйщ аъ ейжашг дфшсермйжцйд едбзйшд бйп тшлеъ реща</desc>
  <defs>
    <linearGradient id="glass" x1="0" y1="0" x2="0" y2="1">
      <stop offset="0%" stop-color="rgba(255,255,255,0.18)" />
      <stop offset="100%" stop-color="rgba(255,255,255,0.08)" />
    </linearGradient>
    <filter id="soft" x="-20%" y="-20%" width="140%" height="140%">
      <feDropShadow dx="0" dy="10" stdDeviation="18" flood-color="#000" flood-opacity="0.35" />
    </filter>
  </defs>
  <rect width="960" height="540" fill="#101828" />
  <rect x="130" y="60" width="700" height="420" rx="24" fill="url(#glass)" stroke="rgba(255,255,255,0.2)" filter="url(#soft)" />
  <text x="180" y="120" fill="#f8fafc" font-family="'Assistant','Heebo',sans-serif" font-size="28" font-weight="600">айк ъшцд щдоощч щмк ййшад?</text>
  <text x="180" y="150" fill="#cbd5f5" font-family="'Assistant','Heebo',sans-serif" font-size="18">бзш Theme едцв ъцевд зйд мфрй щойшд.</text>
  <rect x="180" y="190" width="520" height="80" rx="16" fill="#1f293d" stroke="#6d83f3" stroke-width="2.5" />
  <circle cx="220" cy="230" r="22" fill="#b38bff" />
  <text x="260" y="225" fill="#f8fafc" font-family="'Assistant','Heebo',sans-serif" font-size="20" font-weight="600">Nebula</text>
  <text x="260" y="250" fill="#d1d9ff" font-family="'Assistant','Heebo',sans-serif" font-size="16">веерйн чесоййн тн рйвегйеъ вбедд.</text>
  <rect x="180" y="290" width="520" height="80" rx="16" fill="#1a1f30" stroke="#3d4d7a" stroke-width="1.5" />
  <circle cx="220" cy="330" r="22" fill="#ff8fb0" />
  <text x="260" y="325" fill="#f8fafc" font-family="'Assistant','Heebo',sans-serif" font-size="20" font-weight="600">Rose Pine Dawn</text>
  <text x="260" y="350" fill="#d1d5ed" font-family="'Assistant','Heebo',sans-serif" font-size="16">меч бдйш етгйп бдщшаъ бечш ешег.</text>
  <rect x="180" y="390" width="520" height="80" rx="16" fill="#1a1f30" stroke="#3d4d7a" stroke-width="1.5" />
  <circle cx="220" cy="430" r="22" fill="#ffd479" />
  <text x="260" y="425" fill="#f8fafc" font-family="'Assistant','Heebo',sans-serif" font-size="20" font-weight="600">Classic</text>
  <text x="260" y="450" fill="#d1d5ed" font-family="'Assistant','Heebo',sans-serif" font-size="16">бшйшъ дозгм доелшъ щм CodeKeeper.</text>
  <rect x="720" y="220" width="170" height="120" rx="18" fill="#0f172a" stroke="#334155" stroke-width="1.5" />
  <text x="735" y="255" fill="#f8fafc" font-family="'Assistant','Heebo',sans-serif" font-size="18">Live Preview</text>
  <rect x="735" y="270" width="140" height="60" rx="12" fill="#4c82ff" opacity="0.35" />
  <text x="740" y="315" fill="#cbd5f5" font-family="'Assistant','Heebo',sans-serif" font-size="14">data-theme="nebula"</text>
  <rect x="520" y="480" width="160" height="44" rx="22" fill="#4c82ff" />
  <text x="555" y="508" fill="#fff" font-family="'Assistant','Heebo',sans-serif" font-size="20">щоеш едощк</text>
  <rect x="690" y="480" width="120" height="44" rx="22" fill="transparent" stroke="#4c82ff" stroke-width="2" />
  <text x="720" y="508" fill="#4c82ff" font-family="'Assistant','Heebo',sans-serif" font-size="20">гмв</text>
</svg>
